<svg width="279" height="92" viewBox="0 0 279 92" fill="none" xmlns="http://www.w3.org/2000/svg">
<rect y="14" width="75" height="50" rx="5" fill="#EF4444"/>
<rect x="8" y="11" width="23" height="10" rx="5" fill="#EF4444"/>
<rect x="9" y="26" width="10" height="3" rx="1.5" fill="#FEFDFD"/>
<rect x="9" y="31" width="10" height="3" rx="1.5" fill="#FEFDFD"/>
<rect x="40" y="8" width="27" height="11" rx="5.5" fill="#EF4444"/>
<circle cx="36.5" cy="38.5" r="11" stroke="#FEFDFD" stroke-width="3"/>
<circle cx="36.5" cy="38.5" r="3.5" fill="#FEFDFD"/>
<path d="M59.5507 14.4486C54.4368 10.3107 51.7223 10.2315 47.235 15.288" stroke="#FEFDFD" stroke-width="2"/>
<path d="M98.8125 57.875C99.0625 58.0417 99.375 58.125 99.75 58.125C100.167 58.125 100.562 58.0417 100.938 57.875C101.354 57.7083 101.729 57.4792 102.062 57.1875C102.438 56.8958 102.708 56.5208 102.875 56.0625C103.042 55.6042 103.042 54.9583 102.875 54.125C102.708 53.25 102.438 52.3333 102.062 51.375C101.729 50.375 101.354 49.375 100.938 48.375C100.521 47.375 100.167 46.4583 99.875 45.625C99.625 45 99.4167 44.4167 99.25 43.875C99.0833 43.4167 98.9167 42.9792 98.75 42.5625C98.625 42.1042 98.5208 41.7917 98.4375 41.625C98.2292 41.9583 97.8542 42.5 97.3125 43.25C96.8125 44 96.25 44.7917 95.625 45.625C95.0417 46.4167 94.4792 47.1667 93.9375 47.875C93.3958 48.5417 93.0208 49 92.8125 49.25C92.4792 49.625 92.1458 49.8542 91.8125 49.9375C91.5208 49.9792 91.2708 49.9167 91.0625 49.75C90.8542 49.5417 90.7292 49.2708 90.6875 48.9375C90.6875 48.5625 90.8542 48.125 91.1875 47.625C91.4375 47.2917 91.8125 46.7708 92.3125 46.0625C92.8125 45.3125 93.3125 44.5625 93.8125 43.8125C94.3125 43.0208 94.7708 42.3333 95.1875 41.75C95.6042 41.125 95.8333 40.75 95.875 40.625C95.9583 40.2917 95.8333 39.8542 95.5 39.3125C95.2083 38.7708 95.1667 38.1458 95.375 37.4375C95.5417 36.8542 95.9167 36.1875 96.5 35.4375C97.0833 34.6458 97.7708 33.9375 98.5625 33.3125C99.3542 32.6875 100.167 32.2292 101 31.9375C101.833 31.6042 102.583 31.6042 103.25 31.9375C103.792 32.2708 104.229 32.6458 104.562 33.0625C104.896 33.4375 105.021 33.8333 104.938 34.25C104.854 34.4583 104.729 34.7292 104.562 35.0625C104.396 35.3958 104.146 35.8125 103.812 36.3125C103.479 36.7708 103 37.375 102.375 38.125C102.5 39.0833 102.667 39.9583 102.875 40.75C103.125 41.5417 103.354 42.2292 103.562 42.8125C103.812 43.5208 104.083 44.1667 104.375 44.75C104.75 45.5 105.146 46.2708 105.562 47.0625C105.979 47.8542 106.354 48.6458 106.688 49.4375C107.021 50.1875 107.292 50.8958 107.5 51.5625C107.708 52.2292 107.771 52.7917 107.688 53.25C107.562 53.9583 107.188 54.8125 106.562 55.8125C105.979 56.8125 105.229 57.7917 104.312 58.75C103.438 59.6667 102.417 60.4583 101.25 61.125C100.125 61.7917 98.9375 62.125 97.6875 62.125C96.8125 62.125 95.9583 61.8542 95.125 61.3125C94.3333 60.7708 93.6458 60.1458 93.0625 59.4375C92.5208 58.6875 92.1042 57.9583 91.8125 57.25C91.5625 56.5417 91.5417 56 91.75 55.625C92 55.125 92.2292 54.7292 92.4375 54.4375C92.6458 54.1458 92.9583 53.8125 93.375 53.4375C93.5417 53.3125 93.75 53.1667 94 53C94.2083 52.875 94.5 52.75 94.875 52.625C95.25 52.5 95.6875 52.3542 96.1875 52.1875C96.6042 53.4792 96.9792 54.5 97.3125 55.25C97.6458 55.9583 97.9167 56.5208 98.125 56.9375C98.375 57.3958 98.6042 57.7083 98.8125 57.875ZM144.75 46.25C145.042 45.9167 145.333 45.75 145.625 45.75C145.958 45.7083 146.208 45.7917 146.375 46C146.583 46.1667 146.667 46.4375 146.625 46.8125C146.625 47.1875 146.458 47.6042 146.125 48.0625C145.333 49.1458 144.417 50.2708 143.375 51.4375C142.333 52.5625 141.208 53.6667 140 54.75C138.833 55.8333 137.646 56.8542 136.438 57.8125C135.229 58.7708 134.062 59.5625 132.938 60.1875C131.688 60.8958 130.625 61.25 129.75 61.25C128.917 61.25 128.083 60.7083 127.25 59.625C126.5 58.6667 126.125 57.6458 126.125 56.5625C126.167 55.4375 126.417 54.0417 126.875 52.375C127.167 51.3333 127.562 50.1042 128.062 48.6875C128.604 47.2292 129.021 45.8333 129.312 44.5C129.646 43.1667 129.75 42.0417 129.625 41.125C129.5 40.1667 128.958 39.6875 128 39.6875C127.333 39.6875 126.604 39.9167 125.812 40.375C125.062 40.8333 124.292 41.4375 123.5 42.1875C122.75 42.8958 122.021 43.7083 121.312 44.625C120.604 45.5417 119.979 46.4375 119.438 47.3125C119.104 48.9375 118.771 50.5417 118.438 52.125C118.146 53.4583 117.833 54.9167 117.5 56.5C117.208 58.0417 116.917 59.4167 116.625 60.625C116.375 60.8333 116.104 60.9792 115.812 61.0625C115.521 61.1458 115.25 61.1875 115 61.1875C114.708 61.1875 114.417 61.1667 114.125 61.125C113.792 61.0417 113.479 60.9167 113.188 60.75C112.938 60.5833 112.688 60.3542 112.438 60.0625C112.188 59.8125 112 59.4583 111.875 59C113.75 51.2917 115.229 45.1042 116.312 40.4375C117.396 35.7708 118.229 32.2083 118.812 29.75C119.479 26.8333 119.938 24.8125 120.188 23.6875C120.312 22.8958 120.417 22.125 120.5 21.375C120.583 20.7083 120.625 20.0208 120.625 19.3125C120.625 18.6042 120.562 17.9583 120.438 17.375C120.771 17.1667 121.125 17 121.5 16.875C121.917 16.75 122.312 16.6458 122.688 16.5625C123.146 16.4375 123.604 16.3333 124.062 16.25C124.521 16.1667 124.938 16.125 125.312 16.125C125.646 16.125 125.958 16.1667 126.25 16.25C126.542 16.2917 126.729 16.4167 126.812 16.625C127.062 16.8333 127.167 17.25 127.125 17.875C127.125 18.5 127.083 19.1458 127 19.8125C126.833 20.6042 126.646 21.4583 126.438 22.375C125.562 25.75 124.583 29.0417 123.5 32.25C122.417 35.4167 121.417 38.8125 120.5 42.4375C121.042 41.6042 121.688 40.75 122.438 39.875C123.188 39 124 38.2083 124.875 37.5C125.792 36.75 126.75 36.1458 127.75 35.6875C128.75 35.1875 129.812 34.9375 130.938 34.9375C131.521 34.9375 132.062 35.0417 132.562 35.25C133.104 35.4167 133.562 35.7292 133.938 36.1875C134.354 36.6042 134.667 37.1875 134.875 37.9375C135.083 38.6458 135.167 39.5417 135.125 40.625C135.125 41.2917 135.042 41.9792 134.875 42.6875C134.75 43.3958 134.562 44.1875 134.312 45.0625C134.062 45.8958 133.729 46.8333 133.312 47.875C132.938 48.9167 132.479 50.125 131.938 51.5C131.562 52.4583 131.271 53.2708 131.062 53.9375C130.854 54.6042 130.896 55.1875 131.188 55.6875C131.562 56.3542 132.292 56.5208 133.375 56.1875C134.5 55.8125 136.167 54.7292 138.375 52.9375C138.875 52.5208 139.438 52 140.062 51.375C140.688 50.75 141.292 50.125 141.875 49.5C142.458 48.8333 143 48.2083 143.5 47.625C144 47.0417 144.417 46.5833 144.75 46.25ZM174.375 47.5625C173.792 48.3958 173.042 49.4375 172.125 50.6875C171.208 51.8958 170.25 53.125 169.25 54.375C168.292 55.5833 167.333 56.7083 166.375 57.75C165.458 58.75 164.688 59.4583 164.062 59.875C163.646 60.125 163.167 60.3333 162.625 60.5C162.083 60.6667 161.521 60.7708 160.938 60.8125C160.396 60.8542 159.875 60.8125 159.375 60.6875C158.875 60.6042 158.438 60.4375 158.062 60.1875C157.688 59.8958 157.375 59.4792 157.125 58.9375C156.917 58.4792 156.708 57.875 156.5 57.125C156.333 56.375 156.271 55.4375 156.312 54.3125C155.312 55.9792 154.208 57.2708 153 58.1875C151.792 59.0625 150.646 59.7083 149.562 60.125C148.312 60.5833 147.062 60.8542 145.812 60.9375C145.229 60.9375 144.604 60.7292 143.938 60.3125C143.271 59.9375 142.708 59.3333 142.25 58.5C141.792 57.625 141.5 56.5208 141.375 55.1875C141.25 53.8125 141.417 52.1875 141.875 50.3125C142.458 47.7708 143.375 45.4583 144.625 43.375C145.917 41.2917 147.312 39.5208 148.812 38.0625C150.312 36.5625 151.792 35.4375 153.25 34.6875C154.708 33.9375 155.917 33.6042 156.875 33.6875C158 33.8958 158.917 34.2292 159.625 34.6875C160.208 35.1042 160.583 35.7292 160.75 36.5625C160.958 37.3542 160.625 38.4167 159.75 39.75C160.333 39.625 160.812 39.5417 161.188 39.5C161.604 39.4583 161.917 39.4375 162.125 39.4375C162.375 39.4375 162.542 39.4583 162.625 39.5C162.667 39.5833 162.688 39.7708 162.688 40.0625C162.688 40.3125 162.625 40.7917 162.5 41.5C162.375 42.2083 162.188 43.1667 161.938 44.375C161.688 45.5833 161.354 47.1458 160.938 49.0625C160.854 49.4375 160.771 49.7917 160.688 50.125C160.646 50.4167 160.583 50.7292 160.5 51.0625C160.458 51.3542 160.396 51.7083 160.312 52.125C160.229 52.5417 160.125 53.0625 160 53.6875C159.958 54.0625 159.938 54.4792 159.938 54.9375C159.979 55.3542 160.062 55.75 160.188 56.125C160.312 56.5 160.5 56.8125 160.75 57.0625C161.042 57.2708 161.438 57.375 161.938 57.375C162.354 57.375 162.896 57.125 163.562 56.625C164.229 56.0833 164.938 55.4167 165.688 54.625C166.438 53.7917 167.208 52.8958 168 51.9375C168.833 50.9375 169.604 49.9792 170.312 49.0625C171.021 48.1458 171.646 47.3333 172.188 46.625C172.771 45.9167 173.188 45.3958 173.438 45.0625C173.771 44.6875 174.104 44.4792 174.438 44.4375C174.771 44.3542 175.021 44.4375 175.188 44.6875C175.354 44.9375 175.375 45.3125 175.25 45.8125C175.167 46.3125 174.875 46.8958 174.375 47.5625ZM156.062 50.3125C156.271 49.4792 156.521 48.5 156.812 47.375C157.104 46.25 157.354 45.1667 157.562 44.125C157.771 43.0833 157.917 42.2292 158 41.5625C158.125 40.8542 158.104 40.5208 157.938 40.5625C157.729 40.6042 157.5 40.6667 157.25 40.75C157.042 40.8333 156.771 40.8958 156.438 40.9375C156.104 40.9792 155.771 41.0417 155.438 41.125C155.771 40.4583 155.958 39.9167 156 39.5C156.083 39.0417 156.104 38.6875 156.062 38.4375C156.021 38.1458 155.938 37.9167 155.812 37.75C155.354 37.375 154.542 37.6875 153.375 38.6875C152.25 39.6458 150.938 41.4375 149.438 44.0625C148.812 45.1458 148.312 46.3125 147.938 47.5625C147.562 48.7708 147.292 49.9167 147.125 51C147 52.0833 146.979 53.0417 147.062 53.875C147.146 54.6667 147.312 55.1875 147.562 55.4375C148.021 55.8958 148.542 56.125 149.125 56.125C149.708 56.0833 150.292 55.9167 150.875 55.625C151.5 55.2917 152.104 54.875 152.688 54.375C153.312 53.875 153.854 53.3542 154.312 52.8125C154.812 52.2708 155.208 51.7708 155.5 51.3125C155.833 50.8542 156.021 50.5208 156.062 50.3125ZM167.812 59.6875C167.521 60.1458 167.208 60.4375 166.875 60.5625C166.5 60.7292 166.188 60.75 165.938 60.625C165.646 60.5417 165.458 60.3333 165.375 60C165.292 59.6667 165.375 59.25 165.625 58.75C165.75 58.5 166.042 57.9375 166.5 57.0625C166.917 56.1875 167.438 55.1458 168.062 53.9375C168.646 52.6875 169.292 51.3542 170 49.9375C170.708 48.4792 171.375 47.1042 172 45.8125C172.667 44.5208 173.271 43.375 173.812 42.375C174.354 41.3333 174.75 40.5833 175 40.125C174.542 39.7083 174.229 39.4167 174.062 39.25C173.896 39.0417 173.771 38.625 173.688 38C173.604 37.4583 173.729 36.75 174.062 35.875C174.396 35 174.833 34.1667 175.375 33.375C175.917 32.5417 176.521 31.8333 177.188 31.25C177.854 30.6667 178.5 30.375 179.125 30.375C180.292 30.375 181.104 30.75 181.562 31.5C182.062 32.25 182.354 33.0208 182.438 33.8125C182.521 34.3542 182.479 35.0417 182.312 35.875C182.146 36.7083 181.833 37.4583 181.375 38.125C181.5 38.2083 181.667 38.3125 181.875 38.4375C182.083 38.5208 182.417 38.5625 182.875 38.5625C183.542 38.5625 184 38.5208 184.25 38.4375C184.542 38.3542 184.979 38.3125 185.562 38.3125C186.271 38.3125 186.854 38.5 187.312 38.875C187.771 39.2083 188.146 39.6458 188.438 40.1875C188.729 40.6875 188.938 41.25 189.062 41.875C189.229 42.4583 189.333 43 189.375 43.5C189.5 44.5417 189.229 45.625 188.562 46.75C187.896 47.875 187.083 49.1042 186.125 50.4375C185.542 51.2708 184.958 52.2083 184.375 53.25C183.792 54.2917 183.542 55.2292 183.625 56.0625C183.708 56.6042 183.854 57.0417 184.062 57.375C184.271 57.7083 184.854 57.875 185.812 57.875C186.521 57.875 187.292 57.625 188.125 57.125C189 56.5833 189.875 55.9167 190.75 55.125C191.667 54.2917 192.562 53.3958 193.438 52.4375C194.312 51.4375 195.125 50.4792 195.875 49.5625C196.625 48.6042 197.25 47.75 197.75 47C198.292 46.25 198.688 45.7083 198.938 45.375C199.146 45.0417 199.417 44.8125 199.75 44.6875C200.083 44.5625 200.375 44.5625 200.625 44.6875C200.875 44.8125 201.021 45.0625 201.062 45.4375C201.146 45.8125 201 46.3125 200.625 46.9375C200.375 47.3542 199.938 48.0208 199.312 48.9375C198.729 49.8542 198 50.875 197.125 52C196.292 53.125 195.354 54.2917 194.312 55.5C193.271 56.6667 192.167 57.75 191 58.75C189.875 59.7083 188.729 60.5 187.562 61.125C186.438 61.75 185.354 62.0625 184.312 62.0625C183.229 62.0625 182.333 61.8542 181.625 61.4375C180.917 61.0208 180.333 60.5208 179.875 59.9375C179.458 59.3125 179.146 58.6458 178.938 57.9375C178.771 57.1875 178.708 56.5 178.75 55.875C178.792 55.375 178.917 54.8542 179.125 54.3125C179.375 53.7292 179.646 53.1458 179.938 52.5625C180.271 51.9375 180.604 51.3333 180.938 50.75C181.312 50.125 181.646 49.5208 181.938 48.9375C182.646 47.7292 183.208 46.7083 183.625 45.875C184.083 45 184.312 44.2708 184.312 43.6875C184.312 43.3125 184.229 42.9792 184.062 42.6875C183.896 42.3958 183.625 42.25 183.25 42.25C183 42.25 182.812 42.2708 182.688 42.3125C182.604 42.3125 182.5 42.3125 182.375 42.3125C182.292 42.3125 182.146 42.3333 181.938 42.375C181.771 42.375 181.5 42.375 181.125 42.375C180.583 42.375 180.125 42.2917 179.75 42.125C179.375 41.9583 179.021 41.8333 178.688 41.75C178.521 42.0417 178.146 42.6667 177.562 43.625C176.979 44.5833 176.292 45.7083 175.5 47C174.75 48.2917 173.938 49.6458 173.062 51.0625C172.229 52.4792 171.438 53.8125 170.688 55.0625C169.938 56.2708 169.312 57.3125 168.812 58.1875C168.271 59.0208 167.938 59.5208 167.812 59.6875ZM224.5 47C223.25 48.8333 221.833 50.625 220.25 52.375C218.667 54.0833 216.979 55.625 215.188 57C213.438 58.3333 211.625 59.4167 209.75 60.25C207.917 61.0833 206.125 61.5 204.375 61.5C203.458 61.5 202.458 61.2708 201.375 60.8125C200.333 60.3958 199.375 59.7292 198.5 58.8125C197.625 57.8958 196.917 56.7083 196.375 55.25C195.875 53.7917 195.729 52.0208 195.938 49.9375C196.104 48.2292 196.625 46.4375 197.5 44.5625C198.417 42.6458 199.521 40.8958 200.812 39.3125C202.146 37.7292 203.625 36.4167 205.25 35.375C206.917 34.3333 208.583 33.8125 210.25 33.8125C211.833 33.8125 212.979 34.2083 213.688 35C214.396 35.7917 214.708 36.7708 214.625 37.9375C214.5 39.2292 214.125 40.4167 213.5 41.5C212.917 42.5833 212.208 43.5625 211.375 44.4375C210.542 45.3125 209.646 46.1042 208.688 46.8125C207.771 47.5208 206.896 48.1667 206.062 48.75C205.146 49.375 204.271 49.9792 203.438 50.5625C202.604 51.1042 201.875 51.6042 201.25 52.0625C201.292 53.1042 201.479 53.9792 201.812 54.6875C202.146 55.3958 202.562 55.9792 203.062 56.4375C203.562 56.8542 204.125 57.1667 204.75 57.375C205.417 57.5417 206.083 57.625 206.75 57.625C208.167 57.625 209.646 57.1875 211.188 56.3125C212.729 55.3958 214.229 54.3125 215.688 53.0625C217.188 51.7708 218.562 50.4375 219.812 49.0625C221.104 47.6875 222.167 46.5 223 45.5C223.292 45.1667 223.583 44.9792 223.875 44.9375C224.208 44.8542 224.458 44.8958 224.625 45.0625C224.833 45.1875 224.938 45.4375 224.938 45.8125C224.938 46.1458 224.792 46.5417 224.5 47ZM208.5 37.375C208 37.375 207.396 37.625 206.688 38.125C206.021 38.625 205.354 39.3542 204.688 40.3125C204.021 41.2292 203.396 42.375 202.812 43.75C202.229 45.0833 201.792 46.625 201.5 48.375C202 48 202.542 47.625 203.125 47.25C203.708 46.8333 204.292 46.3958 204.875 45.9375C206.667 44.5625 207.917 43.3542 208.625 42.3125C209.333 41.2708 209.729 40.375 209.812 39.625C209.896 38.8333 209.812 38.2708 209.562 37.9375C209.312 37.5625 208.958 37.375 208.5 37.375ZM248.312 47C247.062 48.8333 245.646 50.625 244.062 52.375C242.479 54.0833 240.792 55.625 239 57C237.25 58.3333 235.438 59.4167 233.562 60.25C231.729 61.0833 229.938 61.5 228.188 61.5C227.271 61.5 226.271 61.2708 225.188 60.8125C224.146 60.3958 223.188 59.7292 222.312 58.8125C221.438 57.8958 220.729 56.7083 220.188 55.25C219.688 53.7917 219.542 52.0208 219.75 49.9375C219.917 48.2292 220.438 46.4375 221.312 44.5625C222.229 42.6458 223.333 40.8958 224.625 39.3125C225.958 37.7292 227.438 36.4167 229.062 35.375C230.729 34.3333 232.396 33.8125 234.062 33.8125C235.646 33.8125 236.792 34.2083 237.5 35C238.208 35.7917 238.521 36.7708 238.438 37.9375C238.312 39.2292 237.938 40.4167 237.312 41.5C236.729 42.5833 236.021 43.5625 235.188 44.4375C234.354 45.3125 233.458 46.1042 232.5 46.8125C231.583 47.5208 230.708 48.1667 229.875 48.75C228.958 49.375 228.083 49.9792 227.25 50.5625C226.417 51.1042 225.688 51.6042 225.062 52.0625C225.104 53.1042 225.292 53.9792 225.625 54.6875C225.958 55.3958 226.375 55.9792 226.875 56.4375C227.375 56.8542 227.938 57.1667 228.562 57.375C229.229 57.5417 229.896 57.625 230.562 57.625C231.979 57.625 233.458 57.1875 235 56.3125C236.542 55.3958 238.042 54.3125 239.5 53.0625C241 51.7708 242.375 50.4375 243.625 49.0625C244.917 47.6875 245.979 46.5 246.812 45.5C247.104 45.1667 247.396 44.9792 247.688 44.9375C248.021 44.8542 248.271 44.8958 248.438 45.0625C248.646 45.1875 248.75 45.4375 248.75 45.8125C248.75 46.1458 248.604 46.5417 248.312 47ZM232.312 37.375C231.812 37.375 231.208 37.625 230.5 38.125C229.833 38.625 229.167 39.3542 228.5 40.3125C227.833 41.2292 227.208 42.375 226.625 43.75C226.042 45.0833 225.604 46.625 225.312 48.375C225.812 48 226.354 47.625 226.938 47.25C227.521 46.8333 228.104 46.3958 228.688 45.9375C230.479 44.5625 231.729 43.3542 232.438 42.3125C233.146 41.2708 233.542 40.375 233.625 39.625C233.708 38.8333 233.625 38.2708 233.375 37.9375C233.125 37.5625 232.771 37.375 232.312 37.375ZM262.375 61.5625C261.417 61.5625 260.583 61.375 259.875 61C259.208 60.6667 258.667 60.2083 258.25 59.625C257.833 59.0417 257.562 58.375 257.438 57.625C257.312 56.8333 257.354 56 257.562 55.125C257.688 54.5417 257.896 53.7708 258.188 52.8125C258.479 51.8125 258.771 50.75 259.062 49.625C259.396 48.4583 259.688 47.3125 259.938 46.1875C260.229 45.0208 260.417 43.9792 260.5 43.0625C260.583 42.1042 260.542 41.3333 260.375 40.75C260.208 40.125 259.854 39.8125 259.312 39.8125C258.646 39.8125 257.958 40.0417 257.25 40.5C256.542 40.9167 255.812 41.5 255.062 42.25C254.354 43 253.625 43.875 252.875 44.875C252.167 45.8333 251.458 46.8333 250.75 47.875C250.375 49.2917 250.062 50.5417 249.812 51.625C249.562 52.6667 249.333 53.625 249.125 54.5C248.958 55.3333 248.792 56.0833 248.625 56.75C248.458 57.375 248.312 57.9792 248.188 58.5625C248.062 58.9792 247.688 59.3958 247.062 59.8125C246.438 60.1875 245.771 60.5 245.062 60.75C244.354 61 243.75 61.125 243.25 61.125C242.708 61.125 242.479 60.9375 242.562 60.5625C242.604 60.3125 242.75 59.75 243 58.875C243.208 58 243.479 56.9792 243.812 55.8125C244.104 54.6042 244.417 53.3333 244.75 52C245.083 50.6667 245.396 49.3958 245.688 48.1875C245.896 47.2292 246.125 46.1667 246.375 45C246.583 44 246.833 42.8333 247.125 41.5C247.458 40.1667 247.833 38.7083 248.25 37.125C248.542 36.875 248.833 36.6875 249.125 36.5625C249.458 36.3958 249.792 36.2708 250.125 36.1875C250.458 36.0625 250.812 35.9792 251.188 35.9375C251.521 35.9375 251.854 35.9583 252.188 36C252.479 36.0417 252.771 36.125 253.062 36.25C253.396 36.3333 253.688 36.4792 253.938 36.6875C253.812 36.9792 253.667 37.3958 253.5 37.9375C253.333 38.4375 253.167 38.9792 253 39.5625C252.833 40.2292 252.625 40.9167 252.375 41.625C252.917 40.875 253.521 40.125 254.188 39.375C254.896 38.5833 255.646 37.875 256.438 37.25C257.271 36.625 258.146 36.125 259.062 35.75C259.979 35.3333 260.917 35.125 261.875 35.125C262.667 35.125 263.375 35.3542 264 35.8125C264.625 36.2708 265.104 36.9167 265.438 37.75C265.812 38.5417 266.021 39.5 266.062 40.625C266.146 41.75 266 42.9792 265.625 44.3125L264.938 47.0625C264.729 47.9375 264.458 48.9792 264.125 50.1875C263.833 51.3542 263.458 52.6458 263 54.0625C262.75 54.9792 262.646 55.7708 262.688 56.4375C262.771 57.1042 263.188 57.4375 263.938 57.4375C264.688 57.4375 265.625 56.9792 266.75 56.0625C267.917 55.1458 269.083 54.0417 270.25 52.75C271.417 51.4583 272.521 50.1458 273.562 48.8125C274.604 47.4375 275.396 46.3333 275.938 45.5C276.312 44.9583 276.667 44.6042 277 44.4375C277.333 44.2708 277.583 44.25 277.75 44.375C277.958 44.5 278.062 44.7917 278.062 45.25C278.062 45.6667 277.896 46.2083 277.562 46.875C277.271 47.4583 276.812 48.2292 276.188 49.1875C275.604 50.1458 274.896 51.1667 274.062 52.25C273.229 53.3333 272.333 54.4375 271.375 55.5625C270.417 56.6458 269.417 57.6458 268.375 58.5625C267.333 59.4375 266.292 60.1458 265.25 60.6875C264.25 61.2708 263.292 61.5625 262.375 61.5625Z" fill="#504545"/>
<rect x="5" y="55" width="65" height="5" rx="2" fill="#504545"/>
</svg>
